<svg width="168" height="50" viewBox="0 0 168 50" fill="none" xmlns="http://www.w3.org/2000/svg">
<g id="Amazon">
<path id="Vector" fill-rule="evenodd" clip-rule="evenodd" d="M103.912 39.1024C94.2969 46.212 80.3109 49.9999 68.2479 49.9999C51.3482 49.9999 36.1966 43.7644 24.6582 33.3915C23.7841 32.5756 24.5416 31.4684 25.6489 32.1094C38.0614 39.3355 53.3878 43.6479 69.2386 43.6479C79.9029 43.6479 91.6745 41.4334 102.514 36.8297C104.145 36.1887 105.486 37.9369 103.912 39.1024Z" fill="#F7E3D0"/>
<path id="Vector_2" fill-rule="evenodd" clip-rule="evenodd" d="M107.934 34.499C106.711 32.9256 99.7759 33.7414 96.6873 34.1494C95.7549 34.2659 95.5801 33.4501 96.4542 32.8673C101.99 28.9629 111.023 30.1284 112.072 31.4104C113.121 32.6925 111.781 41.7834 106.594 46.0957C105.778 46.7368 105.021 46.3871 105.37 45.513C106.536 42.5992 109.158 36.1307 107.934 34.499Z" fill="#F7E3D0"/>
<path id="Vector_3" fill-rule="evenodd" clip-rule="evenodd" d="M96.8618 5.47785V1.68997C96.8618 1.10722 97.2697 0.757569 97.7942 0.757569L114.694 0.757569C115.218 0.757569 115.685 1.1655 115.685 1.68997V4.8951C115.685 5.41958 115.218 6.11888 114.403 7.28438L105.661 19.7552C108.925 19.697 112.363 20.1632 115.277 21.7949C115.918 22.1445 116.093 22.7273 116.151 23.2517V27.2727C116.151 27.8555 115.568 28.4965 114.927 28.1468C109.741 25.4079 102.806 25.1165 97.0949 28.2051C96.5122 28.4965 95.8712 27.9137 95.8712 27.331V23.4848C95.8712 22.9021 95.8712 21.8531 96.5122 20.9207L106.652 6.41026L97.8525 6.41026C97.328 6.41026 96.8618 6.00233 96.8618 5.47785ZM35.2651 28.9627H30.1369C29.6707 28.9044 29.2628 28.5548 29.2045 28.0886L29.2045 1.74825C29.2045 1.22378 29.6707 0.815847 30.1952 0.815847L34.9737 0.815847C35.4982 0.815847 35.8479 1.22377 35.9061 1.68997V5.1282H36.0227C37.2464 1.80652 39.6357 0.233097 42.7826 0.233097C45.9877 0.233097 48.0273 1.80652 49.4259 5.1282C50.6497 1.80652 53.5052 0.233097 56.5355 0.233097C58.6917 0.233097 61.0227 1.10722 62.4796 3.14685C64.1113 5.3613 63.7616 8.56644 63.7616 11.4219V28.0886C63.7616 28.613 63.2954 29.021 62.7709 29.021H57.701C57.1765 28.9627 56.7686 28.5548 56.7686 28.0886V14.1026C56.7686 12.9953 56.8851 10.1981 56.652 9.14917C56.2441 7.40092 55.1369 6.87645 53.6217 6.87645C52.398 6.87645 51.0576 7.69231 50.5332 9.03263C50.0087 10.373 50.067 12.5874 50.067 14.1026V28.0886C50.067 28.613 49.6008 29.021 49.0763 29.021L43.9481 29.021C43.4236 28.9627 43.0157 28.5548 43.0157 28.0886V14.1026C43.0157 11.1888 43.4819 6.81817 39.8688 6.81817C36.1975 6.81817 36.314 11.014 36.314 14.1026V28.0886C36.2558 28.5548 35.8478 28.9627 35.2651 28.9627ZM130.253 0.233097C137.887 0.233097 142.025 6.7599 142.025 15.0932C142.025 23.1352 137.48 29.5454 130.253 29.5454C122.794 29.5454 118.715 23.0186 118.715 14.8601C118.657 6.64336 122.794 0.233097 130.253 0.233097ZM130.253 5.65267C126.466 5.65267 126.232 10.8392 126.232 14.0443C126.232 17.2494 126.174 24.1259 130.195 24.1259C134.158 24.1259 134.391 18.5897 134.391 15.2098C134.391 12.9953 134.274 10.3147 133.633 8.21679C133.051 6.35198 131.885 5.65267 130.253 5.65267ZM151.873 28.9627H146.745C146.221 28.9044 145.813 28.4965 145.813 28.0303V1.63169C145.871 1.16549 146.279 0.757569 146.804 0.757569L151.582 0.757569C152.048 0.757569 152.398 1.10723 152.515 1.51515V5.53613H152.631C154.088 1.92308 156.069 0.233097 159.624 0.233097C161.897 0.233097 164.17 1.04894 165.626 3.32167C166.967 5.41957 166.967 8.97435 166.967 11.5385V28.1468C166.908 28.613 166.501 28.9627 165.976 28.9627H160.848C160.382 28.9044 159.974 28.5548 159.915 28.1468V13.8112C159.915 10.8974 160.265 6.70163 156.71 6.70163C155.487 6.70163 154.321 7.51749 153.738 8.79954C153.039 10.4312 152.922 12.0047 152.922 13.8112V28.0303C152.864 28.5548 152.398 28.9627 151.873 28.9627ZM83.4003 16.3753C83.4003 18.3566 83.4586 20.0466 82.4679 21.8531C81.652 23.31 80.37 24.1841 78.9131 24.1841C76.9318 24.1841 75.7663 22.669 75.7663 20.4545C75.7663 16.0839 79.6707 15.2681 83.4003 15.2681V16.3753ZM88.5868 28.9044C88.2371 29.1958 87.7709 29.2541 87.363 29.021C85.673 27.6224 85.3234 26.9231 84.391 25.5827C81.5938 28.4382 79.5541 29.3123 75.9411 29.3123C71.6287 29.3123 68.2488 26.6317 68.2488 21.3287C68.2488 17.1329 70.5215 14.3357 73.7266 12.9371C76.5238 11.7133 80.4283 11.4802 83.4003 11.1305V10.4895C83.4003 9.26573 83.5168 7.80886 82.7593 6.75991C82.1182 5.82751 80.9527 5.41957 79.9038 5.41957C77.9224 5.41957 76.1742 6.41026 75.7663 8.50816C75.6497 8.97436 75.3583 9.44055 74.8921 9.44055L69.9388 8.91608C69.5308 8.79953 69.0646 8.50816 69.1812 7.86713C70.3467 1.80653 75.7663 0 80.6614 0C83.1672 0 86.4306 0.641022 88.412 2.5641C90.9178 4.8951 90.6847 8.04196 90.6847 11.4219V19.4056C90.6847 21.7949 91.6753 22.8438 92.6077 24.1841C92.9574 24.6503 93.0157 25.2331 92.6077 25.5245C91.5005 26.3986 89.6357 28.0303 88.5868 28.9044ZM16.0926 16.3753C16.0926 18.3566 16.1509 20.0466 15.1602 21.8531C14.3444 23.31 13.0623 24.1841 11.6054 24.1841C9.62407 24.1841 8.45857 22.669 8.45857 20.4545C8.45857 16.0839 12.363 15.2681 16.0926 15.2681V16.3753ZM21.2208 28.9044C20.8712 29.1958 20.405 29.2541 19.997 29.021C18.3071 27.6224 17.9574 26.9231 17.025 25.5827C14.2278 28.4382 12.1882 29.3123 8.57512 29.3123C4.26276 29.3123 0.882812 26.6317 0.882812 21.3287C0.882812 17.1329 3.15554 14.3357 6.36066 12.9371C9.15787 11.7133 13.0623 11.4802 16.0343 11.1305V10.4895C16.0343 9.26573 16.1509 7.80886 15.3933 6.75991C14.7523 5.82751 13.5868 5.41957 12.5378 5.41957C10.5565 5.41957 8.80822 6.41026 8.40029 8.50816C8.28374 8.97436 7.99237 9.44055 7.52617 9.44055L2.57279 8.91608C2.16486 8.79953 1.69867 8.50816 1.81522 7.86713C2.98072 1.80653 8.4003 0 13.2954 0C15.8012 0 19.0646 0.641022 21.046 2.5641C23.5518 4.8951 23.3187 8.04196 23.3187 11.4219L23.3187 19.4056C23.3187 21.7949 24.3094 22.8438 25.2418 24.1841C25.5914 24.6503 25.6497 25.2331 25.2418 25.5245C24.1346 26.3986 22.2698 28.0303 21.2208 28.9044Z" fill="black"/>
</g>
</svg>
