<svg width="155" height="52" viewBox="0 0 155 52" fill="none" xmlns="http://www.w3.org/2000/svg">
<g id="Google" clip-path="url(#clip0_1_1214)">
<path id="Vector" d="M19.7966 0.503906H21.1622C25.9033 0.606716 30.5672 2.50869 33.9169 5.87571C32.6801 7.13513 31.4175 8.34314 30.2064 9.60256C28.3254 7.9062 26.0579 6.59537 23.5843 6.13273C19.9254 5.36166 15.983 6.05562 12.9168 8.13752C9.56705 10.3222 7.29955 14.0234 6.80998 17.9815C6.26887 21.8883 7.37685 26.0007 9.92779 29.0336C12.3757 31.9893 16.1119 33.8399 19.9769 33.9684C23.5843 34.174 27.3463 33.0688 29.9745 30.55C32.0359 28.7765 32.9893 26.0778 33.2985 23.4562C29.0211 23.4562 24.7438 23.4819 20.4665 23.4562V18.1615H38.4776C39.4053 23.8417 38.0654 30.2416 33.7365 34.3026C30.8506 37.1812 26.8567 38.8776 22.7855 39.2117C18.8432 39.5973 14.772 38.8519 11.2677 36.9499C7.06765 34.7138 3.71793 30.9355 2.06885 26.489C0.522824 22.4023 0.497057 17.7759 1.94001 13.6635C3.25413 9.91098 5.7793 6.59537 9.02594 4.28216C12.1438 1.99465 15.9315 0.735228 19.7966 0.503906Z" fill="#3780FF"/>
<path id="Vector_2" d="M123.123 1.84082H128.637V38.5438C126.808 38.5438 124.953 38.5695 123.123 38.5181C123.149 26.3095 123.123 14.0752 123.123 1.84082Z" fill="#38B137"/>
<path id="Vector_3" d="M50.7436 14.5639C54.1449 13.9214 57.8296 14.641 60.6382 16.6715C63.1891 18.4707 64.967 21.298 65.5081 24.3823C66.2038 27.9549 65.3278 31.8616 63.0087 34.6889C60.5093 37.8503 56.4124 39.5467 52.4185 39.2896C48.7596 39.084 45.2037 37.2592 43.0393 34.2777C40.5914 30.9878 39.9988 26.4641 41.3387 22.6088C42.6786 18.4707 46.4663 15.3093 50.7436 14.5639ZM51.5166 19.4474C50.1252 19.8072 48.8369 20.604 47.9093 21.7349C45.4099 24.7164 45.5645 29.5741 48.3215 32.35C49.8933 33.9435 52.2639 34.6889 54.4541 34.252C56.4897 33.8921 58.2676 32.5299 59.2467 30.7307C60.9474 27.6722 60.4578 23.457 57.8553 21.0666C56.1805 19.5245 53.7326 18.8819 51.5166 19.4474Z" fill="#FA3913"/>
<path id="Vector_4" d="M78.0558 14.5639C81.9467 13.8185 86.1982 14.898 89.1099 17.6225C93.851 21.8634 94.3664 29.8054 90.3209 34.6888C87.8731 37.7731 83.905 39.4695 79.9884 39.2896C76.2522 39.1868 72.5675 37.3362 70.3515 34.2776C67.8521 30.9106 67.311 26.2842 68.7282 22.3517C70.1454 18.3421 73.8558 15.2835 78.0558 14.5639ZM78.8289 19.4473C77.4374 19.8072 76.1491 20.6039 75.2215 21.7091C72.7478 24.6392 72.8509 29.4199 75.5049 32.2214C77.0767 33.8921 79.5246 34.7146 81.7921 34.2519C83.8019 33.8664 85.6056 32.5298 86.5847 30.7307C88.2596 27.6464 87.77 23.4312 85.1418 21.0409C83.4669 19.4987 81.0191 18.8819 78.8289 19.4473Z" fill="#FCBD06"/>
<path id="Vector_5" d="M101.221 16.0544C104.184 14.2039 108.127 13.6898 111.322 15.2834C112.327 15.7203 113.151 16.4657 113.95 17.211C113.976 16.5171 113.95 15.7974 113.976 15.0777C115.702 15.1034 117.429 15.0777 119.181 15.1034V37.773C119.155 41.1914 118.279 44.8154 115.805 47.3086C113.1 50.0587 108.951 50.9069 105.215 50.3414C101.221 49.7503 97.7426 46.8459 96.1965 43.1705C97.7426 42.4251 99.3659 41.8339 100.963 41.14C101.865 43.2476 103.695 45.0467 105.988 45.458C108.281 45.8692 110.935 45.3038 112.43 43.4018C114.027 41.4484 114.027 38.7754 113.95 36.385C112.765 37.5416 111.399 38.5697 109.75 38.9553C106.168 39.9577 102.226 38.724 99.469 36.3079C96.6861 33.8919 95.037 30.1651 95.1916 26.4639C95.2689 22.2744 97.6395 18.2391 101.221 16.0544ZM106.555 19.3443C104.983 19.6014 103.514 20.4753 102.509 21.6833C100.087 24.5619 100.087 29.1627 102.535 31.9899C103.927 33.6606 106.168 34.5859 108.333 34.3545C110.368 34.1489 112.249 32.8638 113.254 31.0903C114.955 28.0832 114.672 23.9965 112.378 21.3748C110.961 19.7556 108.694 18.9588 106.555 19.3443Z" fill="#3780FF"/>
<path id="Vector_6" d="M135.258 17.3657C138.35 14.487 143.117 13.5103 147.085 15.0268C150.847 16.4404 153.244 20.013 154.455 23.6885C148.863 26.0017 143.298 28.2892 137.706 30.6024C138.479 32.0674 139.665 33.404 141.262 33.9437C143.504 34.7405 146.184 34.4578 148.065 32.967C148.812 32.4016 149.404 31.6562 149.971 30.9365C151.389 31.8875 152.806 32.8128 154.223 33.7638C152.213 36.771 148.838 38.8786 145.204 39.2127C141.185 39.7011 136.907 38.1589 134.305 35.0232C130.028 30.0884 130.44 21.8122 135.258 17.3657ZM138.015 22.1206C137.139 23.38 136.779 24.9222 136.804 26.4386C140.541 24.8965 144.277 23.3543 148.013 21.7865C147.395 20.3472 145.9 19.4733 144.38 19.242C141.932 18.805 139.381 20.1158 138.015 22.1206Z" fill="#FA3913"/>
</g>
<defs>
<clipPath id="clip0_1_1214">
<rect width="154.001" height="51" fill="white" transform="translate(0.882812 0.5)"/>
</clipPath>
</defs>
</svg>
