<svg width="230" height="50" viewBox="0 0 230 50" fill="none" xmlns="http://www.w3.org/2000/svg">
<g id="Huawei">
<path id="Vector" d="M125.179 16.4994H130.289V30.7139C130.289 37.9291 126.312 42.0675 119.385 42.0675C112.53 42.0675 108.589 38.0011 108.589 30.9118V16.5174H113.699V30.7499C113.699 34.9603 115.769 37.2094 119.457 37.2094C123.146 37.2094 125.179 35.0142 125.179 30.9298V16.4994ZM96.39 26.6475H84.8385V16.4994H79.7285V41.6896H84.8385V31.4516H96.372V41.6896H101.482V16.4994H96.372V26.6475H96.39ZM224.356 16.4994V41.6537H229.394V16.4994H224.356ZM204.294 30.8399H213.596V26.2516H204.294V21.0877H217.789V16.5174H199.256V41.6717H218.275V37.0834H204.294V30.8399ZM184.25 33.8087L178.528 16.4814H174.354L168.632 33.8087L163.072 16.4994H157.638L166.419 41.6717H170.647L176.369 25.1361L182.091 41.6717H186.355L195.118 16.4994H189.81L184.25 33.8087ZM148.552 16.6434L159.545 41.6717H154.184L151.916 36.4357H140.383L140.221 36.7955L138.098 41.6717H132.88L143.982 16.4994H148.444L148.552 16.6434ZM149.775 31.2897L146.141 22.851L142.524 31.2897L142.272 31.8655H150.009L149.775 31.2897Z" fill="#24272A"/>
<path id="Vector_2" d="M29.4205 39.0088C29.4925 38.9549 29.5105 38.8469 29.4745 38.7569C24.513 28.0931 18.3235 18.0449 11.0316 8.81657C11.0316 8.81657 5.23789 14.3224 5.65173 19.8463C5.74867 21.1198 6.09574 22.3617 6.67309 23.501C7.25043 24.6402 8.04673 25.6545 9.01642 26.4857C14.0725 31.4158 26.3077 37.6414 29.1506 39.0628C29.2406 39.0988 29.3485 39.0808 29.4205 39.0088ZM27.5312 43.2192C27.4952 43.1112 27.3873 43.0393 27.2613 43.0393L6.89325 43.741C9.10639 47.6815 12.8309 50.7403 16.6994 49.8046C19.3804 49.1389 25.426 44.9105 27.4233 43.4711C27.5852 43.3451 27.5312 43.2372 27.5312 43.2192ZM27.8371 41.4019C27.9451 41.24 27.7651 41.096 27.7651 41.096C18.8226 35.0504 1.47735 25.766 1.47735 25.766C0.902437 27.5281 0.741608 29.3991 1.00736 31.2336C1.27312 33.068 1.9583 34.8164 3.00966 36.343C4.06102 37.8695 5.45023 39.1331 7.06933 40.0355C8.68843 40.9378 10.4938 41.4547 12.3451 41.5458C12.651 41.5998 24.4544 41.5458 27.6212 41.5279C27.7112 41.5099 27.7831 41.4739 27.8371 41.4019ZM29.1866 0.017993C28.3049 0.089965 25.9119 0.647748 25.9119 0.647748C20.514 2.03321 19.2364 6.9453 19.2364 6.9453C18.2468 10.0221 19.2544 13.4228 19.2544 13.4228C21.0537 21.4117 29.9063 34.5646 31.8136 37.3175C31.9395 37.4614 32.0475 37.4075 32.0475 37.4075C32.1554 37.3715 32.2454 37.2815 32.2454 37.1556C35.1962 7.79097 29.1866 0.017993 29.1866 0.017993ZM35.934 37.3715C36.0419 37.4075 36.1679 37.3715 36.2218 37.2635C38.1831 34.4386 46.9817 21.3577 48.781 13.4048C48.781 13.4048 49.7526 9.55429 48.8169 6.92731C48.8169 6.92731 47.4855 1.94324 42.0876 0.629755C42.0876 0.629755 40.5402 0.233909 38.8848 0C38.8848 0 32.8392 7.77298 35.79 37.1376C35.772 37.2455 35.844 37.3355 35.934 37.3715ZM40.7561 43.0573C40.7081 43.0669 40.6627 43.0863 40.6224 43.1141C40.5822 43.142 40.5481 43.1777 40.5222 43.2192C40.5042 43.3272 40.5222 43.4171 40.5941 43.4891C42.5374 44.8925 48.4571 49.0309 51.3 49.8226C51.3 49.8226 56.5719 51.6219 61.1422 43.759L40.7561 43.0573ZM66.576 25.73C66.576 25.73 49.2668 35.0324 40.3063 41.078C40.2163 41.15 40.1623 41.258 40.1983 41.3659C40.1983 41.3659 40.2883 41.5279 40.4142 41.5279C43.617 41.5279 55.7443 41.5458 56.0681 41.4919C57.2737 41.4019 58.4612 41.132 59.5768 40.6822C59.5768 40.6822 63.8951 39.3147 66.1262 34.4026C66.1262 34.4026 68.1234 30.4082 66.576 25.73ZM38.6689 39.0088C38.7409 39.0628 38.8488 39.0808 38.9388 39.0268C41.8537 37.5694 53.9989 31.3978 59.019 26.4857C59.019 26.4857 62.2037 23.9307 62.3657 19.8103C62.7255 14.1065 56.9858 8.81657 56.9858 8.81657C56.9858 8.81657 46.3699 21.6816 38.5789 38.685C38.5664 38.7422 38.5681 38.8016 38.5838 38.858C38.5994 38.9145 38.6287 38.9662 38.6689 39.0088Z" fill="#CE0E2D"/>
</g>
</svg>
