<svg width="235" height="50" viewBox="0 0 235 50" fill="none" xmlns="http://www.w3.org/2000/svg">
<g id="Microsoft" clip-path="url(#clip0_1_1217)">
<path id="Vector" d="M234.082 22.6199V18.5032H228.97V12.1033L228.798 12.1563L223.996 13.6255L223.902 13.6542V18.5035H216.323V15.802C216.323 14.5441 216.604 13.5816 217.158 12.9396C217.709 12.3053 218.496 11.9829 219.501 11.9829C220.222 11.9829 220.97 12.1529 221.722 12.4883L221.911 12.5725V8.23709L221.822 8.20448C221.12 7.95223 220.166 7.8252 218.983 7.8252C217.492 7.8252 216.137 8.14969 214.955 8.79278C213.773 9.43678 212.843 10.3561 212.191 11.525C211.542 12.6925 211.213 14.041 211.213 15.5332V18.5032H207.653V22.6199H211.213V39.9628H216.323V22.6199H223.902V33.641C223.902 38.1801 226.043 40.4802 230.265 40.4802C230.959 40.4802 231.689 40.3989 232.435 40.2398C233.194 40.0763 233.711 39.913 234.015 39.7386L234.082 39.6988V35.5441L233.875 35.6815C233.597 35.8663 233.252 36.0173 232.847 36.1296C232.44 36.244 232.101 36.3013 231.837 36.3013C230.848 36.3013 230.117 36.0348 229.663 35.5087C229.203 34.978 228.97 34.0498 228.97 32.7514V22.6199H234.082ZM196.241 36.302C194.387 36.302 192.924 35.6869 191.894 34.4755C190.857 33.2579 190.332 31.522 190.332 29.3165C190.332 27.041 190.857 25.26 191.894 24.0209C192.925 22.79 194.374 22.1652 196.2 22.1652C197.972 22.1652 199.382 22.7619 200.393 23.9396C201.408 25.1235 201.923 26.8902 201.923 29.1922C201.923 31.5225 201.439 33.3125 200.483 34.5099C199.534 35.6983 198.107 36.302 196.241 36.302ZM196.469 17.9863C192.93 17.9863 190.119 19.0232 188.115 21.0681C186.113 23.1134 185.097 25.9436 185.097 29.4811C185.097 32.841 186.089 35.5436 188.044 37.5125C189.999 39.4821 192.659 40.4798 195.951 40.4798C199.381 40.4798 202.136 39.4284 204.139 37.3551C206.142 35.2841 207.157 32.4805 207.157 29.0257C207.157 25.6133 206.204 22.8905 204.326 20.9348C202.446 18.9781 199.802 17.9863 196.469 17.9863ZM176.858 17.9863C174.451 17.9863 172.46 18.602 170.939 19.8159C169.409 21.0371 168.633 22.6387 168.633 24.5768C168.633 25.5843 168.8 26.4792 169.13 27.2382C169.462 27.9997 169.975 28.6702 170.657 29.2329C171.334 29.7911 172.379 30.3758 173.763 30.9706C174.927 31.4496 175.795 31.8547 176.346 32.1739C176.885 32.4869 177.268 32.8014 177.484 33.1078C177.694 33.4076 177.8 33.8179 177.8 34.3242C177.8 35.766 176.72 36.4675 174.499 36.4675C173.675 36.4675 172.735 36.2954 171.705 35.9562C170.683 35.6221 169.718 35.1329 168.844 34.5056L168.632 34.3534V39.2733L168.71 39.3095C169.433 39.6433 170.345 39.9248 171.419 40.1462C172.492 40.3679 173.466 40.4807 174.312 40.4807C176.924 40.4807 179.028 39.8621 180.563 38.6409C182.107 37.4113 182.89 35.7719 182.89 33.7667C182.89 32.3202 182.469 31.0798 181.638 30.0794C180.813 29.0871 179.381 28.1761 177.384 27.3709C175.793 26.7323 174.774 26.2022 174.354 25.7953C173.948 25.4022 173.742 24.8463 173.742 24.1423C173.742 23.5182 173.997 23.0182 174.518 22.6134C175.044 22.2065 175.775 21.9995 176.693 21.9995C177.544 21.9995 178.415 22.134 179.282 22.3976C180.147 22.6612 180.908 23.0142 181.542 23.446L181.751 23.5887V18.9217L181.671 18.8873C181.086 18.6362 180.313 18.4213 179.375 18.2469C178.442 18.0737 177.595 17.9863 176.858 17.9863ZM155.311 36.302C153.457 36.302 151.994 35.6869 150.963 34.4755C149.926 33.2579 149.402 31.5225 149.402 29.3165C149.402 27.041 149.927 25.26 150.965 24.0209C151.995 22.79 153.443 22.1652 155.27 22.1652C157.041 22.1652 158.452 22.7619 159.462 23.9396C160.478 25.1235 160.993 26.8902 160.993 29.1922C160.993 31.5225 160.508 33.3125 159.553 34.5099C158.604 35.6983 157.177 36.302 155.311 36.302ZM155.539 17.9863C151.999 17.9863 149.188 19.0232 147.185 21.0681C145.183 23.1134 144.167 25.9436 144.167 29.4811C144.167 32.8424 145.159 35.5436 147.114 37.5125C149.069 39.4821 151.729 40.4798 155.021 40.4798C158.451 40.4798 161.206 39.4284 163.209 37.3551C165.212 35.2841 166.227 32.4805 166.227 29.0257C166.227 25.6133 165.274 22.8905 163.395 20.9348C161.515 18.9781 158.871 17.9863 155.539 17.9863ZM136.41 22.2196V18.5032H131.362V39.9624H136.41V28.9852C136.41 27.1186 136.833 25.5852 137.668 24.4269C138.493 23.2825 139.591 22.7026 140.933 22.7026C141.387 22.7026 141.898 22.7775 142.451 22.9259C142.998 23.0733 143.394 23.2334 143.628 23.4018L143.84 23.5556V18.4666L143.758 18.4315C143.288 18.2317 142.623 18.131 141.781 18.131C140.513 18.131 139.378 18.5386 138.405 19.3411C137.552 20.0464 136.935 21.0136 136.464 22.2196H136.41ZM122.322 17.9863C120.006 17.9863 117.941 18.4829 116.184 19.4618C114.423 20.4429 113.062 21.8437 112.135 23.6249C111.213 25.4018 110.745 27.4773 110.745 29.792C110.745 31.8196 111.199 33.6802 112.096 35.3201C112.994 36.9627 114.265 38.2478 115.873 39.139C117.48 40.0292 119.336 40.4805 121.392 40.4805C123.791 40.4805 125.839 40.0009 127.481 39.055L127.548 39.017V34.3924L127.335 34.5473C126.592 35.0891 125.76 35.5216 124.866 35.8332C123.974 36.1446 123.16 36.302 122.447 36.302C120.466 36.302 118.876 35.6822 117.722 34.4603C116.565 33.2368 115.979 31.5188 115.979 29.357C115.979 27.1816 116.591 25.4194 117.796 24.1192C118.998 22.8228 120.591 22.1652 122.53 22.1652C124.19 22.1652 125.806 22.727 127.336 23.8366L127.548 23.9904V19.1176L127.479 19.0791C126.904 18.7569 126.119 18.4908 125.144 18.289C124.173 18.0877 123.224 17.9863 122.322 17.9863ZM107.268 18.5035H102.22V39.9624H107.268V18.5035ZM104.796 9.36182C103.965 9.36182 103.241 9.64465 102.645 10.2051C102.047 10.7671 101.744 11.4747 101.744 12.3099C101.744 13.1318 102.044 13.8266 102.636 14.3736C103.224 14.9191 103.951 15.1956 104.796 15.1956C105.641 15.1956 106.371 14.9191 106.966 14.3745C107.565 13.8266 107.869 13.1321 107.869 12.3099C107.869 11.504 107.573 10.8036 106.991 10.2277C106.408 9.65303 105.67 9.36182 104.796 9.36182ZM92.2013 16.9202V39.9624H97.3529V10.0187H90.2229L81.1603 32.26L72.3656 10.0187H64.9453V39.9621H69.7864V16.9179H69.9526L79.2396 39.9624H82.893L92.0351 16.9202H92.2013Z" fill="#706D6E"/>
<path id="Vector_2" d="M23.7464 23.7591H0V0.0126953H23.7464V23.7591Z" fill="#F1511B"/>
<path id="Vector_3" d="M49.9647 23.7591H26.2188V0.0126953H49.9647V23.7591Z" fill="#80CC28"/>
<path id="Vector_4" d="M23.7457 49.9874H0V26.2412H23.7457V49.9874Z" fill="#00ADEF"/>
<path id="Vector_5" d="M49.9647 49.9874H26.2188V26.2412H49.9647V49.9874Z" fill="#FBBC09"/>
</g>
<defs>
<clipPath id="clip0_1_1217">
<rect width="235" height="50" fill="white"/>
</clipPath>
</defs>
</svg>
