<svg width="89" height="76" viewBox="0 0 89 76" fill="none" xmlns="http://www.w3.org/2000/svg">
<g id="PWC" clip-path="url(#clip0_1_1213)">
<path id="Vector" d="M88.8837 32.6338H56.875V23.3115H88.8837V32.6338Z" fill="#E669A2"/>
<path id="Vector_2" d="M84.7262 32.6334H56.875V9.31738H84.7262V32.6334Z" fill="#F3BE26"/>
<path id="Vector_3" d="M73.2195 32.6335H56.875V0H73.2195V32.6335Z" fill="#EE9C34"/>
<path id="Vector_4" d="M76.4351 32.6337H56.875V3.6416H76.4351V32.6337Z" fill="#F3BC87"/>
<path id="Vector_5" d="M56.8691 3.64648V32.6301H73.2164V3.64648H56.8691Z" fill="#E3721C"/>
<path id="Vector_6" d="M40.4844 32.6338H56.8742V37.2954H40.4844V32.6338Z" fill="#AD1B02"/>
<path id="Vector_7" d="M56.8691 9.3125V32.6307H76.4431V9.3125H56.8691Z" fill="#E88D14"/>
<path id="Vector_8" d="M56.8691 9.3125V32.6307H73.2164V9.3125H56.8691Z" fill="#D85604"/>
<path id="Vector_9" d="M67.0961 32.6333H56.875V18.6387H67.0961V32.6333Z" fill="#C14303"/>
<path id="Vector_10" d="M56.8691 23.3174V32.6301H84.7343V23.3174H56.8691Z" fill="#DB4E18"/>
<path id="Vector_11" d="M56.8691 23.3174V32.6301H76.4431V23.3174H56.8691Z" fill="#D1390D"/>
<path id="Vector_12" d="M56.8691 23.3174V32.6301H73.2164V23.3174H56.8691Z" fill="#C22303"/>
<path id="Vector_13" d="M56.8691 23.3174V32.6301H67.1049V23.3174H56.8691Z" fill="#AD1B02"/>
<path id="Vector_14" d="M60.4386 50.1916C57.6499 50.7558 56.1626 53.1533 56.1626 57.3137C56.1626 61.5447 58.1457 64.3653 61.0583 64.3653C62.4837 64.3653 63.7231 63.8012 66.3259 62.3204C66.3259 65.7756 66.3259 65.7756 66.3259 65.7756C63.1654 67.468 61.3062 67.8911 58.8273 67.8911C56.0386 67.8911 54.0555 67.1154 52.5062 65.2115C50.8949 63.3781 50.0273 60.9806 50.0273 58.2305C50.0273 52.2366 53.9935 48.0762 59.7569 48.0762C63.5372 48.0762 66.202 50.1211 66.202 53.0123C66.202 54.9162 64.9626 56.256 63.1654 56.256C62.2358 56.256 61.4921 55.9034 60.4386 55.2688" fill="black"/>
<path id="Vector_15" d="M46.4938 58.2305C49.0347 54.6341 49.9642 53.1533 49.9642 51.3904C49.9642 49.6275 48.7248 48.0762 46.9896 48.0762C45.998 48.0762 45.0685 48.7108 44.6347 49.2749C44.6347 56.6791 44.6347 56.6791 44.6347 56.6791C40.4825 63.0255 40.4825 63.0255 40.4825 63.0255C40.4825 48.6403 40.4825 48.6403 40.4825 48.6403C36.5163 48.6403 36.5163 48.6403 36.5163 48.6403C29.9473 60.9806 29.9473 60.9806 29.9473 60.9806C29.9473 48.6403 29.9473 48.6403 29.9473 48.6403C27.7163 48.6403 27.7163 48.6403 27.7163 48.6403C21.7051 50.1916 21.7051 50.1916 21.7051 50.1916C21.7051 51.9545 21.7051 51.9545 21.7051 51.9545C24.9896 52.3071 24.9896 52.3071 24.9896 52.3071C24.9896 67.6091 24.9896 67.6091 24.9896 67.6091C29.1417 67.6091 29.1417 67.6091 29.1417 67.6091C35.4628 55.7624 35.4628 55.7624 35.4628 55.7624C35.4628 67.6091 35.4628 67.6091 35.4628 67.6091C40.1107 67.6091 40.1107 67.6091 40.1107 67.6091" fill="black"/>
<path id="Vector_16" d="M9.12506 65.2111C9.62084 65.2111 9.74478 65.2111 10.0546 65.2111C13.4011 65.2111 15.2603 62.8841 15.2603 58.23C15.2603 54.3517 13.773 52.2362 10.9842 52.2362C10.6124 52.2362 10.0546 52.3067 9.12506 52.5183V65.2111ZM9.12506 73.532C11.8518 74.2371 11.8518 74.2371 11.8518 74.2371C11.8518 76 11.8518 76 11.8518 76C1.1307 76 1.1307 76 1.1307 76C1.1307 74.2371 1.1307 74.2371 1.1307 74.2371C3.60957 73.532 3.60957 73.532 3.60957 73.532C3.60957 52.2362 3.60957 52.2362 3.60957 52.2362C0.882812 52.2362 0.882812 52.2362 0.882812 52.2362C0.882812 50.4733 0.882812 50.4733 0.882812 50.4733C7.38985 48.2168 7.38985 48.2168 7.38985 48.2168C9.12507 48.2168 9.12506 48.2168 9.12506 48.2168C9.12506 50.7554 9.12506 50.7554 9.12506 50.7554C12.1617 48.6399 13.2152 48.2873 14.8265 48.2873C18.4208 48.2873 21.1476 52.0952 21.1476 57.3839C21.1476 63.4482 17.4913 67.6086 11.9138 67.6086C11.2941 67.6086 10.2406 67.5381 9.12506 67.4676" fill="black"/>
</g>
<defs>
<clipPath id="clip0_1_1213">
<rect width="88" height="76" fill="white" transform="translate(0.882812)"/>
</clipPath>
</defs>
</svg>
