<svg width="226" height="60" viewBox="0 0 226 60" fill="none" xmlns="http://www.w3.org/2000/svg">
<g id="Vodafone">
<path id="Vector" d="M56.5912 29.9997C56.5912 45.1433 44.3191 57.4204 29.1755 57.4204C14.032 57.4204 1.75488 45.1433 1.75488 29.9997C1.75488 14.8562 14.032 2.5791 29.1755 2.5791C44.3191 2.5791 56.5912 14.8562 56.5912 29.9997Z" fill="#EE3023"/>
<path id="Vector_2" d="M29.392 45.2902C21.8605 45.3158 14.0217 38.8872 13.9865 28.5598C13.9612 21.7336 17.6489 15.1593 22.3542 11.26C26.9487 7.46154 33.2409 5.01819 38.9436 4.99805C39.6792 4.99805 40.4499 5.0584 40.9185 5.21962C35.931 6.25237 31.9613 10.8972 31.9764 16.1617C31.9764 16.3379 31.9914 16.5243 32.0115 16.61C40.3591 18.6453 44.1475 23.6831 44.1727 30.6503C44.1928 37.6226 38.6916 45.2599 29.3918 45.2901" fill="white"/>
<path id="Vector_3" d="M218.899 28.9474C218.844 28.2572 218.698 27.6526 218.461 27.1438C218.224 26.63 217.932 26.2169 217.584 25.8995C217.237 25.5771 216.864 25.3453 216.461 25.1892C216.053 25.0382 215.645 24.9625 215.226 24.9625C214.335 24.9625 213.488 25.2949 212.682 25.96C211.876 26.625 211.403 27.6174 211.262 28.9474H218.899ZM211.141 32.64C211.252 34.3277 211.776 35.5469 212.723 36.2925C213.665 37.0381 214.889 37.4159 216.385 37.4159C217.08 37.4159 217.735 37.3504 218.345 37.2294C218.954 37.1037 219.499 36.9472 219.972 36.7509C220.446 36.5593 220.849 36.363 221.181 36.1715C221.514 35.9752 221.76 35.7937 221.932 35.6275L223.302 39.8239C223.106 39.9599 222.793 40.1464 222.365 40.3831C221.937 40.62 221.403 40.8365 220.768 41.0481C220.133 41.2546 219.383 41.431 218.526 41.5871C217.67 41.7381 216.728 41.8138 215.705 41.8138C214.4 41.8138 213.166 41.6072 211.987 41.1941C210.813 40.776 209.781 40.1312 208.899 39.2596C208.012 38.3881 207.307 37.305 206.783 36.0052C206.254 34.7055 205.992 33.1539 205.992 31.3554C205.992 29.6677 206.234 28.1715 206.718 26.8717C207.201 25.572 207.866 24.4787 208.708 23.5921C209.554 22.7105 210.536 22.0304 211.655 21.5568C212.778 21.0883 213.972 20.8516 215.247 20.8516C216.521 20.8516 217.695 21.0632 218.778 21.4762C219.856 21.8893 220.788 22.5342 221.579 23.4057C222.365 24.2773 222.99 25.4057 223.443 26.7911C223.902 28.1714 224.128 29.8189 224.128 31.7282V32.64L211.141 32.64Z" fill="#EE3023"/>
<path id="Vector_4" d="M74.2989 41.3546L65.916 21.3496H71.3921L76.6213 34.6342L81.6893 21.3496H86.9185L78.7825 41.3546H74.2989Z" fill="#EE3023"/>
<path id="Vector_5" d="M101.507 31.2497C101.507 30.4185 101.412 29.6275 101.215 28.8769C101.024 28.1263 100.731 27.4814 100.344 26.9424C99.9557 26.3983 99.4872 25.9701 98.933 25.6527C98.3788 25.3303 97.729 25.1691 96.9834 25.1691C96.2378 25.1691 95.5829 25.3303 95.0337 25.6527C94.4796 25.97 94.006 26.3983 93.6232 26.9424C93.2353 27.4814 92.9431 28.1263 92.7516 28.8769C92.5552 29.6275 92.4594 30.4185 92.4594 31.2497C92.4594 32.1112 92.5551 32.9121 92.7516 33.6476C92.9431 34.3832 93.2252 35.028 93.598 35.5822C93.9708 36.1364 94.4443 36.5746 95.0136 36.897C95.5778 37.2143 96.2378 37.3756 96.9834 37.3756C97.729 37.3756 98.3788 37.2144 98.933 36.897C99.4872 36.5746 99.9557 36.1364 100.344 35.5822C100.731 35.028 101.024 34.3832 101.215 33.6476C101.412 32.9121 101.507 32.1112 101.507 31.2497ZM106.57 31.2716C106.57 32.5764 106.369 33.856 105.971 35.1154C105.568 36.3749 104.973 37.4983 104.182 38.4958C103.396 39.4933 102.399 40.2943 101.195 40.9039C99.9909 41.5134 98.5854 41.8157 96.9834 41.8157C95.3763 41.8157 93.9708 41.5134 92.7718 40.9039C91.5678 40.2943 90.5703 39.4933 89.7794 38.4958C88.9935 37.4983 88.399 36.3749 87.996 35.1154C87.598 33.856 87.3965 32.5764 87.3965 31.2716C87.3965 29.9719 87.598 28.7023 87.996 27.453C88.399 26.2086 88.9935 25.0953 89.7794 24.1129C90.5703 23.1306 91.5678 22.3446 92.7718 21.7502C93.9708 21.1558 95.3763 20.8535 96.9834 20.8535C98.5854 20.8535 99.9859 21.1558 101.175 21.7502C102.364 22.3446 103.361 23.1306 104.162 24.1129C104.968 25.0953 105.568 26.2086 105.971 27.453C106.369 28.7023 106.57 29.9719 106.57 31.2716Z" fill="#EE3023"/>
<path id="Vector_6" d="M122.033 25.7535C121.04 25.3655 120.118 25.1691 119.262 25.1691C118.385 25.1691 117.624 25.3405 116.995 25.6728C116.36 26.0052 115.836 26.4537 115.423 27.023C115.01 27.5922 114.703 28.232 114.496 28.9424C114.289 29.6476 114.184 30.3782 114.184 31.1288C114.184 31.96 114.274 32.7559 114.456 33.5217C114.632 34.2824 114.909 34.9525 115.282 35.5217C115.65 36.091 116.118 36.5494 116.682 36.897C117.247 37.2396 117.917 37.4159 118.687 37.4159C119.322 37.4159 119.967 37.2397 120.627 36.897C121.287 36.5494 121.755 36.1363 122.033 35.6678L122.033 25.7535ZM122.446 41.3554L122.239 39.824C121.771 40.3479 121.151 40.8114 120.375 41.2094C119.604 41.6124 118.692 41.8139 117.645 41.8139C116.269 41.8139 115.05 41.5218 114.007 40.9424C112.954 40.363 112.073 39.5872 111.357 38.62C110.642 37.6527 110.093 36.5293 109.72 35.2547C109.352 33.9852 109.166 32.6552 109.166 31.2698C109.166 29.9701 109.357 28.6955 109.74 27.4512C110.128 26.2068 110.713 25.0935 111.499 24.1112C112.289 23.1288 113.272 22.3429 114.461 21.7484C115.645 21.154 117.04 20.8517 118.637 20.8517C119.685 20.8517 120.818 21.048 122.033 21.431V13.6729H127.176V41.3554H122.446Z" fill="#EE3023"/>
<path id="Vector_7" d="M141.663 31.975C141.109 32.0042 140.535 32.0558 139.95 32.1212C139.366 32.1918 138.812 32.2824 138.283 32.3932C137.164 32.6147 136.394 32.9927 135.96 33.5318C135.532 34.0759 135.316 34.6602 135.316 35.3C135.316 35.96 135.557 36.494 136.046 36.897C136.535 37.295 137.22 37.4965 138.112 37.4965C138.782 37.4965 139.431 37.3605 140.056 37.0834C140.681 36.8063 141.22 36.4587 141.663 36.0456V31.975ZM142.076 41.3403L141.875 39.844C141.316 40.4586 140.61 40.9423 139.749 41.2899C138.887 41.6376 137.945 41.8138 136.918 41.8138C136.056 41.8138 135.225 41.6675 134.439 41.3755C133.643 41.0885 132.943 40.6702 132.333 40.1312C131.724 39.5921 131.23 38.9322 130.857 38.1413C130.479 37.3503 130.293 36.4587 130.293 35.4612C130.293 34.4688 130.484 33.5871 130.877 32.8264C131.265 32.0657 131.789 31.4259 132.459 30.8969C133.124 30.373 133.89 29.9448 134.751 29.6123C135.608 29.28 136.515 29.0279 137.457 28.8617C138.122 28.7257 138.852 28.6247 139.643 28.5542C140.434 28.4836 141.094 28.4233 141.623 28.3678V28.0757C141.623 26.9674 141.341 26.1814 140.767 25.7079C140.197 25.2394 139.411 25.0026 138.414 25.0026C137.829 25.0026 137.27 25.0731 136.741 25.2143C136.212 25.3503 135.744 25.5217 135.326 25.7281C134.908 25.9398 134.54 26.1463 134.217 26.3528C133.9 26.5594 133.643 26.7457 133.447 26.912L131.744 23.3049C131.965 23.1086 132.303 22.8767 132.761 22.5997C133.22 22.3226 133.769 22.0505 134.424 21.7885C135.074 21.5264 135.804 21.3049 136.62 21.1236C137.437 20.9422 138.318 20.8516 139.255 20.8516C140.363 20.8516 141.376 20.9978 142.288 21.2899C143.2 21.582 143.991 22.0355 144.656 22.6601C145.316 23.2798 145.835 24.0657 146.212 25.0229C146.585 25.975 146.772 27.1286 146.772 28.4838V41.3403H142.076Z" fill="#EE3023"/>
<path id="Vector_8" d="M162.672 18.2372C162.505 18.1567 162.183 18.0357 161.699 17.8844C161.211 17.7334 160.571 17.6578 159.765 17.6578C159.049 17.6578 158.445 17.8745 157.961 18.3026C157.478 18.7308 157.236 19.4311 157.236 20.3983V21.3504H161.553V25.5016H157.276V41.3555H152.128V25.5016H149.473V21.3504H152.128V20.2723C152.128 18.9726 152.294 17.8744 152.626 16.9726C152.959 16.0759 153.422 15.3404 154.017 14.7761C154.611 14.2069 155.311 13.7887 156.112 13.5268C156.918 13.2647 157.79 13.1338 158.732 13.1338C159.976 13.1338 161.004 13.2497 161.82 13.4866C162.636 13.7235 163.115 13.8795 163.251 13.9652L162.672 18.2372Z" fill="#EE3023"/>
<path id="Vector_9" d="M176.703 31.2497C176.703 30.4185 176.602 29.6275 176.41 28.8769C176.219 28.1263 175.927 27.4814 175.539 26.9424C175.151 26.3983 174.682 25.9701 174.128 25.6527C173.574 25.3303 172.924 25.1691 172.179 25.1691C171.433 25.1691 170.778 25.3303 170.229 25.6527C169.675 25.97 169.201 26.3983 168.813 26.9424C168.431 27.4814 168.138 28.1263 167.942 28.8769C167.75 29.6275 167.655 30.4185 167.655 31.2497C167.655 32.1112 167.75 32.9121 167.942 33.6476C168.138 34.3832 168.421 35.028 168.793 35.5822C169.166 36.1364 169.64 36.5746 170.204 36.897C170.773 37.2143 171.433 37.3756 172.179 37.3756C172.924 37.3756 173.574 37.2144 174.128 36.897C174.682 36.5746 175.151 36.1364 175.539 35.5822C175.927 35.028 176.219 34.3832 176.41 33.6476C176.602 32.9121 176.703 32.1112 176.703 31.2497ZM181.766 31.2716C181.766 32.5764 181.564 33.856 181.161 35.1154C180.763 36.3749 180.169 37.4983 179.378 38.4958C178.592 39.4933 177.594 40.2943 176.39 40.9039C175.186 41.5134 173.781 41.8157 172.179 41.8157C170.572 41.8157 169.166 41.5134 167.967 40.9039C166.763 40.2943 165.766 39.4933 164.975 38.4958C164.189 37.4983 163.594 36.3749 163.191 35.1154C162.788 33.856 162.592 32.5764 162.592 31.2716C162.592 29.9719 162.788 28.7023 163.191 27.453C163.594 26.2086 164.189 25.0953 164.975 24.1129C165.766 23.1306 166.763 22.3446 167.967 21.7502C169.166 21.1558 170.572 20.8535 172.179 20.8535C173.781 20.8535 175.181 21.1558 176.37 21.7502C177.559 22.3446 178.557 23.1306 179.358 24.1129C180.164 25.0953 180.763 26.2086 181.161 27.453C181.564 28.7023 181.766 29.9719 181.766 31.2716Z" fill="#EE3023"/>
<path id="Vector_10" d="M197.741 41.3551V29.9446C197.741 28.4232 197.423 27.2444 196.788 26.4131C196.149 25.5869 195.267 25.1688 194.128 25.1688C193.327 25.1688 192.587 25.3753 191.912 25.7934C191.232 26.2065 190.642 26.665 190.144 27.1637V41.3551H185V21.3501H189.69L189.937 22.927C190.743 22.267 191.645 21.7532 192.657 21.3955C193.665 21.0328 194.683 20.8564 195.705 20.8564C196.758 20.8564 197.725 21.0126 198.612 21.33C199.499 21.6524 200.259 22.1561 200.894 22.8463C201.534 23.5365 202.023 24.4383 202.37 25.5416C202.713 26.6499 202.889 27.9798 202.889 29.5264V41.3551H197.741Z" fill="#EE3023"/>
</g>
</svg>
